<svg width="316" height="103" viewBox="0 0 316 103" fill="none" xmlns="http://www.w3.org/2000/svg">
<rect width="316" height="103" fill="#A0A6B3"/>
<rect width="96.775" height="100.94" transform="translate(0.987488 1.03)" fill="white"/>
<path d="M40.8967 36.0378L27.5593 70.7766H24.0656L37.425 36.0378H40.8967ZM56.4973 70.7766L43.1379 36.0378H47.0051L60.3644 70.7766H56.4973ZM77.9865 36.0378L64.6491 70.7766H61.1555L74.5148 36.0378H77.9865Z" fill="#A0A6B3"/>
<path d="M133.414 66.69V41.49H139.282L148.066 64.782H148.534V41.49H151.522V66.69H145.654L136.906 43.362H136.402V66.69H133.414ZM157.321 66.69V41.49H160.345V52.686H172.153V41.49H175.177V66.69H172.153V55.422H160.345V66.69H157.321ZM189.19 67.194C187.414 67.194 185.842 66.822 184.474 66.078C183.13 65.334 182.074 64.29 181.306 62.946C180.562 61.578 180.19 59.97 180.19 58.122V57.654C180.19 55.83 180.562 54.234 181.306 52.866C182.074 51.498 183.13 50.442 184.474 49.698C185.842 48.954 187.414 48.582 189.19 48.582C190.966 48.582 192.526 48.954 193.87 49.698C195.238 50.442 196.294 51.498 197.038 52.866C197.806 54.234 198.19 55.83 198.19 57.654V58.122C198.19 59.97 197.806 61.578 197.038 62.946C196.294 64.29 195.238 65.334 193.87 66.078C192.526 66.822 190.966 67.194 189.19 67.194ZM189.19 64.638C191.062 64.638 192.55 64.05 193.654 62.874C194.782 61.674 195.346 60.066 195.346 58.05V57.726C195.346 55.71 194.782 54.114 193.654 52.938C192.55 51.738 191.062 51.138 189.19 51.138C187.342 51.138 185.854 51.738 184.726 52.938C183.598 54.114 183.034 55.71 183.034 57.726V58.05C183.034 60.066 183.598 61.674 184.726 62.874C185.854 64.05 187.342 64.638 189.19 64.638ZM203.308 66.69V41.49H206.152V66.69H203.308ZM218.612 66.69C217.604 66.69 216.824 66.414 216.272 65.862C215.744 65.31 215.48 64.554 215.48 63.594V51.57H210.188V49.086H215.48V42.822H218.324V49.086H224.084V51.57H218.324V63.162C218.324 63.882 218.672 64.242 219.368 64.242H223.292V66.69H218.612ZM228.69 66.69V41.49H231.534V51.894H232.038C232.278 51.366 232.638 50.874 233.118 50.418C233.622 49.938 234.258 49.542 235.026 49.23C235.818 48.918 236.814 48.762 238.014 48.762C239.334 48.762 240.51 49.05 241.542 49.626C242.598 50.178 243.438 50.994 244.062 52.074C244.686 53.13 244.998 54.45 244.998 56.034V66.69H242.154V56.25C242.154 54.498 241.71 53.226 240.822 52.434C239.958 51.642 238.782 51.246 237.294 51.246C235.59 51.246 234.198 51.798 233.118 52.902C232.062 54.006 231.534 55.65 231.534 57.834V66.69H228.69ZM258.832 67.194C257.056 67.194 255.496 66.822 254.152 66.078C252.808 65.31 251.764 64.242 251.02 62.874C250.276 61.506 249.904 59.922 249.904 58.122V57.69C249.904 55.866 250.276 54.27 251.02 52.902C251.764 51.534 252.796 50.478 254.116 49.734C255.436 48.966 256.948 48.582 258.652 48.582C260.308 48.582 261.772 48.942 263.044 49.662C264.316 50.358 265.312 51.366 266.032 52.686C266.752 54.006 267.112 55.554 267.112 57.33V58.626H252.748C252.82 60.522 253.432 62.01 254.584 63.09C255.736 64.146 257.176 64.674 258.904 64.674C260.416 64.674 261.58 64.326 262.396 63.63C263.212 62.934 263.836 62.106 264.268 61.146L266.716 62.334C266.356 63.078 265.852 63.822 265.204 64.566C264.58 65.31 263.752 65.934 262.72 66.438C261.712 66.942 260.416 67.194 258.832 67.194ZM252.784 56.286H264.232C264.136 54.654 263.572 53.382 262.54 52.47C261.532 51.558 260.236 51.102 258.652 51.102C257.044 51.102 255.724 51.558 254.692 52.47C253.66 53.382 253.024 54.654 252.784 56.286ZM274.197 73.89V71.37H284.277C284.973 71.37 285.321 71.01 285.321 70.29V63.882H284.817C284.577 64.386 284.205 64.89 283.701 65.394C283.221 65.874 282.585 66.27 281.793 66.582C281.001 66.87 280.005 67.014 278.805 67.014C277.533 67.014 276.357 66.738 275.277 66.186C274.221 65.634 273.381 64.818 272.757 63.738C272.157 62.658 271.857 61.338 271.857 59.778V49.086H274.701V59.562C274.701 61.29 275.133 62.55 275.997 63.342C276.885 64.134 278.073 64.53 279.561 64.53C281.241 64.53 282.621 63.978 283.701 62.874C284.781 61.77 285.321 60.126 285.321 57.942V49.086H288.165V70.794C288.165 71.754 287.889 72.51 287.337 73.062C286.809 73.614 286.029 73.89 284.997 73.89H274.197Z" fill="white"/>
</svg>
